# xmcd
#
# Track frame offsets: 
#        150
#        18577
#        32260
#        47365
#        61790
#        83870
#        102235
#        127260
#        144802
#        158685
#        177360
#
# Disc length: 2644 seconds
#
# Revision: 0
# Processed by: cddbd v1.5.2PL0 Copyright (c) Steve Scherf et al.
# Submitted via: ExactAudioCopy v0.99pb3
#
DISCID=800a520b
DTITLE=the session brothers - the session brothers
DYEAR=1992
DGENRE=
TTITLE0=after the fire
TTITLE1=waiting
TTITLE2=falling in live
TTITLE3=on your own way
TTITLE4=good times
TTITLE5=only fools part II
TTITLE6=angel
TTITLE7=looking for a woman
TTITLE8=it's never too late
TTITLE9=bad man
TTITLE10=time stands still
EXTD=
EXTT0=
EXTT1=
EXTT2=
EXTT3=
EXTT4=
EXTT5=
EXTT6=
EXTT7=
EXTT8=
EXTT9=
EXTT10=
PLAYORDER=
